<mxfile host="app.diagrams.net" modified="2023-08-28T14:13:59.974Z" agent="Mozilla/5.0 (Windows NT 10.0; Win64; x64) AppleWebKit/537.36 (KHTML, like Gecko) Chrome/116.0.0.0 Safari/537.36" etag="p8xkvL6p2yjaVHlVXAWY" version="21.6.9" type="device">
  <diagram id="C5RBs43oDa-KdzZeNtuy" name="Page-1">
    <mxGraphModel dx="874" dy="1647" grid="1" gridSize="10" guides="1" tooltips="1" connect="1" arrows="1" fold="1" page="1" pageScale="1" pageWidth="827" pageHeight="1169" math="0" shadow="0">
      <root>
        <mxCell id="WIyWlLk6GJQsqaUBKTNV-0" />
        <mxCell id="WIyWlLk6GJQsqaUBKTNV-1" parent="WIyWlLk6GJQsqaUBKTNV-0" />
        <mxCell id="zdYGyDuBKikfVw-t4Z2_-7" style="edgeStyle=orthogonalEdgeStyle;rounded=0;orthogonalLoop=1;jettySize=auto;html=1;" edge="1" parent="WIyWlLk6GJQsqaUBKTNV-1" source="zdYGyDuBKikfVw-t4Z2_-0" target="zdYGyDuBKikfVw-t4Z2_-1">
          <mxGeometry relative="1" as="geometry" />
        </mxCell>
        <mxCell id="zdYGyDuBKikfVw-t4Z2_-0" value="" style="ellipse;whiteSpace=wrap;html=1;aspect=fixed;fillColor=#000000;" vertex="1" parent="WIyWlLk6GJQsqaUBKTNV-1">
          <mxGeometry x="360" y="-1130" width="60" height="60" as="geometry" />
        </mxCell>
        <mxCell id="zdYGyDuBKikfVw-t4Z2_-8" style="edgeStyle=orthogonalEdgeStyle;rounded=0;orthogonalLoop=1;jettySize=auto;html=1;entryX=0.5;entryY=0;entryDx=0;entryDy=0;" edge="1" parent="WIyWlLk6GJQsqaUBKTNV-1" source="zdYGyDuBKikfVw-t4Z2_-1" target="zdYGyDuBKikfVw-t4Z2_-4">
          <mxGeometry relative="1" as="geometry" />
        </mxCell>
        <mxCell id="zdYGyDuBKikfVw-t4Z2_-1" value="&quot;Ingrese lados del triangulo rectángulo&quot;" style="shape=document;whiteSpace=wrap;html=1;boundedLbl=1;" vertex="1" parent="WIyWlLk6GJQsqaUBKTNV-1">
          <mxGeometry x="330" y="-1050" width="120" height="80" as="geometry" />
        </mxCell>
        <mxCell id="zdYGyDuBKikfVw-t4Z2_-10" style="edgeStyle=orthogonalEdgeStyle;rounded=0;orthogonalLoop=1;jettySize=auto;html=1;entryX=0.5;entryY=0;entryDx=0;entryDy=0;" edge="1" parent="WIyWlLk6GJQsqaUBKTNV-1" source="zdYGyDuBKikfVw-t4Z2_-2" target="zdYGyDuBKikfVw-t4Z2_-3">
          <mxGeometry relative="1" as="geometry" />
        </mxCell>
        <mxCell id="zdYGyDuBKikfVw-t4Z2_-2" value="hipotenusa &amp;lt;- raíz cuadrada de (lado1 * lado1 + lado2 * lado2)&lt;br&gt;perimetro &amp;lt;- lado1 + lado2 + hipotenusa &lt;br&gt;area &amp;lt;- 0.5 * lado1 * lado2" style="rounded=0;whiteSpace=wrap;html=1;" vertex="1" parent="WIyWlLk6GJQsqaUBKTNV-1">
          <mxGeometry x="210" y="-860" width="360" height="90" as="geometry" />
        </mxCell>
        <mxCell id="zdYGyDuBKikfVw-t4Z2_-11" style="edgeStyle=orthogonalEdgeStyle;rounded=0;orthogonalLoop=1;jettySize=auto;html=1;entryX=0.5;entryY=0;entryDx=0;entryDy=0;" edge="1" parent="WIyWlLk6GJQsqaUBKTNV-1" source="zdYGyDuBKikfVw-t4Z2_-3" target="zdYGyDuBKikfVw-t4Z2_-5">
          <mxGeometry relative="1" as="geometry" />
        </mxCell>
        <mxCell id="zdYGyDuBKikfVw-t4Z2_-3" value="&quot;La hipotenusa es:&quot;, hipotenusa&lt;br&gt;&quot;El perimetro es:&quot;, perimetro&lt;br&gt;&quot;El area es:&quot;, area" style="shape=document;whiteSpace=wrap;html=1;boundedLbl=1;" vertex="1" parent="WIyWlLk6GJQsqaUBKTNV-1">
          <mxGeometry x="300" y="-740" width="180" height="80" as="geometry" />
        </mxCell>
        <mxCell id="zdYGyDuBKikfVw-t4Z2_-9" style="edgeStyle=orthogonalEdgeStyle;rounded=0;orthogonalLoop=1;jettySize=auto;html=1;entryX=0.5;entryY=0;entryDx=0;entryDy=0;" edge="1" parent="WIyWlLk6GJQsqaUBKTNV-1" source="zdYGyDuBKikfVw-t4Z2_-4" target="zdYGyDuBKikfVw-t4Z2_-2">
          <mxGeometry relative="1" as="geometry" />
        </mxCell>
        <mxCell id="zdYGyDuBKikfVw-t4Z2_-4" value="lado1, lado2" style="shape=parallelogram;perimeter=parallelogramPerimeter;whiteSpace=wrap;html=1;fixedSize=1;" vertex="1" parent="WIyWlLk6GJQsqaUBKTNV-1">
          <mxGeometry x="310" y="-950" width="160" height="60" as="geometry" />
        </mxCell>
        <mxCell id="zdYGyDuBKikfVw-t4Z2_-5" value="" style="ellipse;whiteSpace=wrap;html=1;aspect=fixed;fillColor=#000000;" vertex="1" parent="WIyWlLk6GJQsqaUBKTNV-1">
          <mxGeometry x="360" y="-630" width="60" height="60" as="geometry" />
        </mxCell>
      </root>
    </mxGraphModel>
  </diagram>
</mxfile>
